<mxfile host="app.diagrams.net" agent="Mozilla/5.0 (Macintosh; Intel Mac OS X 10_15_7) AppleWebKit/537.36 (KHTML, like Gecko) Chrome/127.0.0.0 Safari/537.36" version="24.7.5">
  <diagram name="第 1 页" id="nbFBfrREQuIjY1WGpnrq">
    <mxGraphModel dx="1220" dy="623" grid="0" gridSize="10" guides="1" tooltips="1" connect="1" arrows="1" fold="1" page="1" pageScale="1" pageWidth="3300" pageHeight="4681" background="#000000" math="0" shadow="0">
      <root>
        <mxCell id="0" />
        <mxCell id="1" parent="0" />
        <mxCell id="RAnKX8DOH0oj_kgxoS3b-13" style="rounded=0;orthogonalLoop=1;jettySize=auto;html=1;exitX=0.5;exitY=0.5;exitDx=0;exitDy=0;exitPerimeter=0;strokeColor=#736CA8;fontColor=#1A1A1A;" edge="1" parent="1" source="RAnKX8DOH0oj_kgxoS3b-1" target="RAnKX8DOH0oj_kgxoS3b-4">
          <mxGeometry relative="1" as="geometry" />
        </mxCell>
        <mxCell id="RAnKX8DOH0oj_kgxoS3b-14" style="rounded=0;orthogonalLoop=1;jettySize=auto;html=1;exitX=0.5;exitY=0.5;exitDx=0;exitDy=0;exitPerimeter=0;strokeColor=#736CA8;fontColor=#1A1A1A;" edge="1" parent="1" source="RAnKX8DOH0oj_kgxoS3b-1" target="RAnKX8DOH0oj_kgxoS3b-7">
          <mxGeometry relative="1" as="geometry" />
        </mxCell>
        <mxCell id="RAnKX8DOH0oj_kgxoS3b-15" style="edgeStyle=none;rounded=0;orthogonalLoop=1;jettySize=auto;html=1;exitX=0.5;exitY=0.5;exitDx=0;exitDy=0;exitPerimeter=0;entryX=1;entryY=0.5;entryDx=0;entryDy=0;strokeColor=#736CA8;fontColor=#1A1A1A;" edge="1" parent="1" source="RAnKX8DOH0oj_kgxoS3b-1" target="RAnKX8DOH0oj_kgxoS3b-10">
          <mxGeometry relative="1" as="geometry" />
        </mxCell>
        <mxCell id="RAnKX8DOH0oj_kgxoS3b-16" style="edgeStyle=none;rounded=0;orthogonalLoop=1;jettySize=auto;html=1;exitX=0.5;exitY=0.5;exitDx=0;exitDy=0;exitPerimeter=0;entryX=1;entryY=0.5;entryDx=0;entryDy=0;strokeColor=#736CA8;fontColor=#1A1A1A;" edge="1" parent="1" source="RAnKX8DOH0oj_kgxoS3b-1" target="RAnKX8DOH0oj_kgxoS3b-11">
          <mxGeometry relative="1" as="geometry" />
        </mxCell>
        <mxCell id="RAnKX8DOH0oj_kgxoS3b-17" style="edgeStyle=none;rounded=0;orthogonalLoop=1;jettySize=auto;html=1;exitX=0.5;exitY=0.5;exitDx=0;exitDy=0;exitPerimeter=0;strokeColor=#736CA8;fontColor=#1A1A1A;" edge="1" parent="1" source="RAnKX8DOH0oj_kgxoS3b-1" target="RAnKX8DOH0oj_kgxoS3b-8">
          <mxGeometry relative="1" as="geometry" />
        </mxCell>
        <mxCell id="RAnKX8DOH0oj_kgxoS3b-18" style="edgeStyle=none;rounded=0;orthogonalLoop=1;jettySize=auto;html=1;exitX=0.5;exitY=0.5;exitDx=0;exitDy=0;exitPerimeter=0;strokeColor=#736CA8;fontColor=#1A1A1A;" edge="1" parent="1" source="RAnKX8DOH0oj_kgxoS3b-1" target="RAnKX8DOH0oj_kgxoS3b-9">
          <mxGeometry relative="1" as="geometry" />
        </mxCell>
        <mxCell id="RAnKX8DOH0oj_kgxoS3b-19" style="edgeStyle=none;rounded=0;orthogonalLoop=1;jettySize=auto;html=1;exitX=0.5;exitY=0.5;exitDx=0;exitDy=0;exitPerimeter=0;strokeColor=#736CA8;fontColor=#1A1A1A;" edge="1" parent="1" source="RAnKX8DOH0oj_kgxoS3b-1" target="RAnKX8DOH0oj_kgxoS3b-12">
          <mxGeometry relative="1" as="geometry" />
        </mxCell>
        <mxCell id="RAnKX8DOH0oj_kgxoS3b-1" value="&lt;h3&gt;&lt;font color=&quot;#ffffff&quot;&gt;旅行者&lt;/font&gt;&lt;/h3&gt;" style="shape=umlActor;html=1;verticalLabelPosition=bottom;verticalAlign=top;align=center;strokeColor=#D0CEE2;fontColor=#1A1A1A;fillColor=#5D7F99;" vertex="1" parent="1">
          <mxGeometry x="454" y="189" width="30" height="60" as="geometry" />
        </mxCell>
        <mxCell id="RAnKX8DOH0oj_kgxoS3b-4" value="&lt;div style=&quot;text-align: justify; padding-top: 30px;&quot;&gt;&lt;span style=&quot;background-color: initial;&quot;&gt;&lt;font color=&quot;#ffffff&quot;&gt;注册/登录&lt;/font&gt;&lt;/span&gt;&lt;/div&gt;" style="ellipse;whiteSpace=wrap;html=1;verticalAlign=top;fillColor=#000000;strokeColor=#D0CEE2;fontColor=#1A1A1A;" vertex="1" parent="1">
          <mxGeometry x="591" y="39" width="80" height="80" as="geometry" />
        </mxCell>
        <mxCell id="RAnKX8DOH0oj_kgxoS3b-7" value="&lt;div style=&quot;padding-top: 28px;&quot;&gt;&lt;span style=&quot;background-color: initial;&quot;&gt;&lt;font color=&quot;#ffffff&quot;&gt;查看个性化行程推荐&lt;/font&gt;&lt;/span&gt;&lt;/div&gt;" style="ellipse;whiteSpace=wrap;html=1;verticalAlign=top;fillColor=#000000;strokeColor=#D0CEE2;fontColor=#1A1A1A;align=center;" vertex="1" parent="1">
          <mxGeometry x="684" y="294" width="80" height="80" as="geometry" />
        </mxCell>
        <mxCell id="RAnKX8DOH0oj_kgxoS3b-8" value="&lt;div style=&quot;text-align: justify; padding-top: 30px;&quot;&gt;&lt;span style=&quot;background-color: initial;&quot;&gt;&lt;font color=&quot;#ffffff&quot;&gt;搜索景点&lt;/font&gt;&lt;/span&gt;&lt;/div&gt;" style="ellipse;whiteSpace=wrap;html=1;verticalAlign=top;fillColor=#000000;strokeColor=#D0CEE2;fontColor=#1A1A1A;" vertex="1" parent="1">
          <mxGeometry x="642" y="147" width="80" height="80" as="geometry" />
        </mxCell>
        <mxCell id="RAnKX8DOH0oj_kgxoS3b-9" value="&lt;div style=&quot;text-align: justify; padding-top: 30px;&quot;&gt;&lt;font color=&quot;#ffffff&quot;&gt;浏览景点介绍&lt;/font&gt;&lt;/div&gt;" style="ellipse;whiteSpace=wrap;html=1;verticalAlign=top;fillColor=#000000;strokeColor=#D0CEE2;fontColor=#1A1A1A;" vertex="1" parent="1">
          <mxGeometry x="339" y="44" width="80" height="80" as="geometry" />
        </mxCell>
        <mxCell id="RAnKX8DOH0oj_kgxoS3b-10" value="&lt;div style=&quot;text-align: justify; padding-top: 30px;&quot;&gt;&lt;font color=&quot;#ffffff&quot;&gt;添加/修改行程&lt;/font&gt;&lt;/div&gt;" style="ellipse;whiteSpace=wrap;html=1;verticalAlign=top;fillColor=#000000;strokeColor=#D0CEE2;fontColor=#1A1A1A;" vertex="1" parent="1">
          <mxGeometry x="161" y="173" width="80" height="80" as="geometry" />
        </mxCell>
        <mxCell id="RAnKX8DOH0oj_kgxoS3b-11" value="&lt;div style=&quot;text-align: justify; padding-top: 30px;&quot;&gt;&lt;font color=&quot;#ffffff&quot;&gt;查看用户评价&lt;/font&gt;&lt;/div&gt;" style="ellipse;whiteSpace=wrap;html=1;verticalAlign=top;fillColor=#000000;strokeColor=#D0CEE2;fontColor=#1A1A1A;" vertex="1" parent="1">
          <mxGeometry x="208" y="327" width="80" height="80" as="geometry" />
        </mxCell>
        <mxCell id="RAnKX8DOH0oj_kgxoS3b-12" value="&lt;div style=&quot;text-align: justify; padding-top: 30px;&quot;&gt;&lt;font color=&quot;#ffffff&quot;&gt;提交用户评价&lt;/font&gt;&lt;/div&gt;" style="ellipse;whiteSpace=wrap;html=1;verticalAlign=top;fillColor=#000000;strokeColor=#D0CEE2;fontColor=#1A1A1A;" vertex="1" parent="1">
          <mxGeometry x="432" y="348" width="80" height="80" as="geometry" />
        </mxCell>
      </root>
    </mxGraphModel>
  </diagram>
</mxfile>
